<svg width="300" height="300" viewBox="0 0 300 300" fill="none" xmlns="http://www.w3.org/2000/svg">
<rect width="300" height="300" fill="white"/>
<path d="M153 239.863C200.38 237.269 238 198.028 238 150C238 135.401 234.524 121.615 228.355 109.422L153 152.928V239.863Z" fill="#0400FF"/>
<path d="M58 150C58 135.303 61.5227 121.429 67.7698 109.176L143 152.611V239.863C95.6201 237.269 58 198.028 58 150Z" fill="#0400FF"/>
<path d="M223.383 100.636C197.446 60.9007 144.652 47.9414 103.059 71.9553C90.4163 79.2546 80.2145 89.1582 72.74 100.597L148.095 144.103L223.383 100.636Z" fill="#0400FF"/>
<path d="M193.059 227.84C180.331 235.188 166.555 239.074 152.82 239.791L152.82 152.922L228.383 109.296C249.826 151.625 234.652 203.826 193.059 227.84Z" fill="#0400FF"/>
<path d="M67.6169 109.296C46.1737 151.625 61.3476 203.826 102.941 227.84C115.584 235.139 129.261 239.022 142.905 239.776L142.905 152.764L67.6169 109.296Z" fill="#0400FF"/>
<path d="M192.941 71.9553C205.669 79.3037 215.922 89.2914 223.41 100.828L148.18 144.262L72.6169 100.636C98.5536 60.9007 151.348 47.9414 192.941 71.9553Z" fill="#0400FF"/>
</svg>
